<?xml version="1.0" standalone="no"?>
<!DOCTYPE svg PUBLIC "-//W3C//DTD SVG 20010904//EN"
 "http://www.w3.org/TR/2001/REC-SVG-20010904/DTD/svg10.dtd">
<svg version="1.0" xmlns="http://www.w3.org/2000/svg"
 width="632.000000pt" height="334.000000pt" viewBox="0 0 632.000000 334.000000"
 preserveAspectRatio="xMidYMid meet">

<g transform="translate(0.000000,334.000000) scale(0.100000,-0.100000)"
fill="#000000" stroke="none">
<path d="M0 1670 l0 -1670 3160 0 3160 0 0 1670 0 1670 -3160 0 -3160 0 0
-1670z m1288 965 c98 -110 104 -115 142 -115 l40 0 0 -139 0 -139 -27 -6 c-16
-2 -50 -8 -78 -11 -27 -4 -81 -21 -120 -39 -290 -135 -407 -475 -259 -756 37
-71 110 -153 178 -199 62 -42 168 -81 241 -88 l65 -6 0 -143 0 -144 -54 0 -55
0 -103 -110 c-57 -60 -111 -110 -120 -110 -25 0 -209 82 -214 95 -3 7 -1 77 4
156 6 79 7 149 3 156 -3 6 -33 39 -66 73 l-59 62 -160 -3 -160 -4 -45 114 -45
114 69 61 c39 33 92 82 120 108 l50 47 4 87 3 87 -116 112 c-64 62 -116 116
-116 121 0 22 86 207 100 213 8 4 76 4 152 -1 75 -4 145 -5 156 0 25 9 131
109 134 125 0 7 1 81 2 166 l1 155 90 37 c50 20 101 37 115 38 21 1 46 -22
128 -114z m1693 -406 c80 -20 159 -110 159 -182 0 -27 -1 -27 -69 -27 -68 0
-69 0 -74 30 -12 57 -114 89 -191 60 -33 -12 -59 -53 -51 -80 9 -28 46 -45
156 -70 161 -37 207 -62 235 -127 18 -41 18 -114 1 -156 -19 -43 -87 -103
-134 -116 -133 -38 -283 -12 -350 61 -27 29 -53 89 -53 123 0 24 2 25 69 25
68 0 68 0 77 -31 15 -52 54 -74 134 -74 98 0 142 35 126 100 -7 27 -32 38
-163 70 -134 32 -165 46 -196 86 -69 92 -32 239 74 294 59 31 159 37 250 14z
m676 6 c173 -32 270 -234 218 -453 -18 -75 -49 -127 -106 -176 -55 -47 -104
-61 -209 -61 -65 0 -96 5 -131 21 -60 28 -116 86 -147 154 -23 49 -26 67 -26
175 0 137 14 182 80 255 74 82 183 111 321 85z m-1542 -30 c21 -11 53 -40 70
-63 26 -38 30 -52 29 -107 0 -68 -16 -103 -62 -141 l-26 -21 23 -12 c35 -19
51 -71 51 -165 0 -62 4 -89 15 -100 29 -29 17 -36 -65 -36 l-79 0 -10 38 c-6
20 -11 69 -11 109 0 65 -2 73 -26 92 -22 17 -41 21 -110 21 l-84 0 0 -130 0
-131 -72 3 -73 3 -3 320 c-1 176 0 326 3 333 4 11 43 13 198 10 166 -3 197 -6
232 -23z m385 -310 l0 -335 -75 0 -75 0 0 335 0 335 75 0 75 0 0 -335z m1650
65 l0 -270 163 -2 162 -3 3 -62 3 -63 -236 0 -235 0 0 335 0 335 70 0 70 0 0
-270z m547 23 l70 -248 17 60 c26 91 117 408 121 423 4 12 135 18 147 6 3 -3
-27 -101 -67 -217 -40 -117 -90 -264 -112 -327 l-39 -115 -69 0 -69 0 -24 70
c-106 306 -198 586 -194 590 3 3 38 5 77 5 l72 0 70 -247z m767 170 c15 -43
45 -127 66 -188 21 -60 61 -175 89 -254 28 -79 51 -145 51 -147 0 -2 -35 -4
-79 -4 l-78 0 -17 58 c-25 87 -18 83 -146 80 l-113 -3 -22 -65 -22 -65 -76 -3
c-42 -2 -77 -1 -77 2 0 3 4 15 10 28 8 19 89 248 197 553 14 38 27 73 30 77 2
5 39 8 82 8 l78 0 27 -77z m-3994 -464 l0 -282 -51 6 c-35 4 -67 18 -107 44
-144 97 -164 300 -41 424 45 46 128 87 177 88 l22 1 0 -281z m1080 -314 c68
-35 81 -149 23 -207 -79 -78 -203 -22 -203 91 0 42 33 104 62 118 33 17 84 15
118 -2z m1489 1 c15 -8 32 -26 39 -41 10 -22 9 -27 -5 -32 -10 -4 -22 3 -35
20 -28 38 -81 38 -105 0 -24 -36 -22 -106 2 -133 28 -31 86 -24 103 13 8 16
21 27 33 27 25 0 24 -10 -4 -51 -55 -82 -174 -53 -192 48 -19 115 71 197 164
149z m377 -17 c57 -54 49 -163 -16 -207 -46 -31 -111 -26 -148 11 -30 31 -41
110 -22 158 29 69 131 90 186 38z m687 20 c28 -15 37 -28 37 -56 0 -31 -24
-29 -38 3 -10 21 -18 25 -50 22 -32 -3 -37 -6 -37 -28 0 -22 7 -27 49 -37 62
-15 86 -37 86 -78 0 -39 -25 -64 -74 -72 -59 -9 -116 28 -116 77 0 20 36 9 45
-12 13 -30 91 -39 102 -12 10 27 -10 47 -61 60 -61 16 -76 29 -76 69 0 59 74
94 133 64z m-3244 -111 c22 -62 41 -116 41 -120 0 -5 -9 -8 -19 -8 -13 0 -23
11 -31 35 -11 33 -14 35 -55 35 -41 0 -45 -2 -56 -35 -8 -22 -20 -35 -31 -35
-10 0 -18 4 -18 10 0 5 19 59 41 120 36 95 44 110 64 110 19 0 28 -15 64 -112z
m121 19 c0 -104 7 -117 57 -117 44 0 53 21 53 124 0 81 1 86 21 86 20 0 21 -4
17 -101 -3 -96 -4 -102 -31 -125 -42 -36 -110 -29 -144 15 -8 10 -12 53 -13
114 0 90 1 97 20 97 19 0 20 -7 20 -93z m380 78 c0 -11 -11 -15 -40 -15 l-40
0 0 -105 c0 -98 -1 -105 -20 -105 -19 0 -20 7 -20 105 l0 105 -40 0 c-29 0
-40 4 -40 15 0 12 18 15 100 15 82 0 100 -3 100 -15z m371 -74 c16 -46 30 -86
33 -88 2 -2 17 35 33 84 27 79 32 88 56 91 l27 3 0 -120 c0 -114 -1 -121 -20
-121 -18 0 -20 7 -21 78 l-1 77 -26 -77 c-21 -64 -30 -78 -47 -78 -17 0 -26
14 -47 78 l-26 77 -1 -77 c-1 -71 -3 -78 -21 -78 -19 0 -20 7 -20 121 l0 120
27 -3 c23 -3 29 -12 54 -87z m352 -17 c21 -59 41 -113 44 -120 3 -9 -2 -14
-16 -14 -14 0 -25 11 -35 35 -14 32 -19 35 -56 35 -37 0 -42 -3 -56 -35 -10
-24 -21 -35 -35 -35 -16 0 -19 4 -14 18 16 38 47 119 55 142 22 68 30 80 52
80 20 0 28 -14 61 -106z m237 91 c0 -11 -11 -15 -40 -15 l-40 0 0 -105 c0 -98
-1 -105 -20 -105 -19 0 -20 7 -20 105 l0 105 -45 0 c-33 0 -45 4 -45 15 0 12
18 15 105 15 87 0 105 -3 105 -15z m70 -110 c0 -118 -1 -125 -20 -125 -19 0
-20 7 -20 125 0 118 1 125 20 125 19 0 20 -7 20 -125z m230 108 c-1 -10 -32
-56 -69 -103 l-69 -85 69 -3 c52 -2 69 -6 69 -17 0 -12 -18 -15 -95 -15 -119
0 -119 4 -26 120 l69 85 -64 3 c-48 2 -64 7 -64 17 0 12 18 15 90 15 79 0 90
-2 90 -17z m183 -80 c53 -148 53 -145 26 -141 -16 2 -25 12 -31 36 -8 30 -11
32 -53 32 -41 0 -45 -2 -56 -35 -8 -22 -20 -35 -31 -35 -10 0 -18 4 -18 10 0
5 19 59 41 120 36 95 44 110 64 110 19 0 27 -14 58 -97z m377 -28 c0 -118 -1
-125 -20 -125 -19 0 -20 7 -20 125 0 118 1 125 20 125 19 0 20 -7 20 -125z
m414 38 l51 -82 3 84 c2 77 5 85 22 85 19 0 20 -7 20 -120 0 -120 0 -120 -24
-120 -19 0 -34 17 -77 88 l-54 87 -3 -87 c-3 -80 -5 -88 -22 -88 -19 0 -20 7
-20 121 l0 120 27 -3 c21 -2 37 -19 77 -85z m336 72 c0 -11 -13 -15 -52 -16
-95 -2 -93 -1 -93 -34 0 -30 0 -30 63 -33 45 -2 62 -7 62 -17 0 -10 -17 -15
-62 -17 l-63 -3 0 -35 0 -35 73 -3 c55 -2 72 -6 72 -17 0 -12 -18 -15 -90 -15
l-90 0 0 120 0 120 90 0 c73 0 90 -3 90 -15z"/>
<path d="M3488 2100 c-46 -25 -74 -70 -87 -145 -29 -161 42 -285 163 -285 75
0 116 24 149 89 23 46 27 67 27 135 0 89 -19 144 -61 183 -51 46 -128 56 -191
23z"/>
<path d="M1830 2020 l0 -80 104 0 c97 0 106 2 120 22 23 32 20 90 -4 116 -19
20 -31 22 -120 22 l-100 0 0 -80z"/>
<path d="M5316 1940 c-20 -60 -36 -112 -36 -115 0 -3 34 -5 76 -5 74 0 75 1
68 23 -30 99 -66 207 -69 207 -1 0 -19 -49 -39 -110z"/>
<path d="M2440 1330 c-37 -37 -38 -103 -3 -142 22 -25 85 -24 108 2 28 31 31
100 5 133 -27 34 -80 37 -110 7z"/>
<path d="M4281 1324 c-47 -59 -13 -154 55 -154 50 0 74 29 74 90 0 61 -24 90
-74 90 -25 0 -40 -7 -55 -26z"/>
<path d="M1781 1295 c-6 -16 -14 -36 -16 -42 -3 -9 6 -13 25 -13 33 0 36 10
16 55 l-14 30 -11 -30z"/>
<path d="M3006 1296 c-3 -13 -9 -31 -12 -40 -5 -13 1 -16 26 -16 25 0 31 3 26
16 -3 9 -9 27 -12 40 -3 13 -10 24 -14 24 -4 0 -11 -11 -14 -24z"/>
<path d="M3731 1295 c-6 -16 -14 -36 -16 -42 -3 -9 6 -13 25 -13 33 0 36 10
16 55 l-14 30 -11 -30z"/>
</g>
</svg>
